<?xml version="1.0" encoding="utf-8"?>
<!-- Generator: Adobe Illustrator 24.2.0, SVG Export Plug-In . SVG Version: 6.00 Build 0)  -->
<svg version="1.1" id="Layer_1" xmlns="http://www.w3.org/2000/svg" xmlns:xlink="http://www.w3.org/1999/xlink" x="0px" y="0px"
	 viewBox="0 0 50 50" style="enable-background:new 0 0 50 50;" xml:space="preserve">
<style type="text/css">
	.st0{fill:none;}
	.st1{opacity:5.000000e-02;fill:url(#SVGID_1_);}
</style>
<pattern  width="200" height="200" patternUnits="userSpaceOnUse" id="New_Pattern_Swatch_3" viewBox="152.5 -223.1 200 200" style="overflow:visible;">
	<g>
		<rect x="152.5" y="-223.1" class="st0" width="200" height="200"/>
		<g>
			<path d="M190-20.4c-0.6,7.6-3.5,13.8-8.9,18.9c-0.7,0.7-1.8,1.6-2.6,1.5c-1.5-0.1-3.4-0.5-4.5-1.5c-1.5-1.4-0.4-3.1,0.6-4.6
				c2-2.8,4.2-5.4,5.6-8.5c2-4.3,1.5-9-0.2-13.4c-0.9-2.3-0.4-4.1,1.7-5.1c2.2-1,4.4-0.2,5.2,2C188.3-27.6,189-24,190-20.4z"/>
		</g>
		<g>
			<path d="M367.4-46c-0.1,0.3-0.1,1.7-0.8,2.4c-1,1.1-2.5,2.2-3.8,2.3c-1.9,0.1-2.9-1.5-3.2-3.4c-0.3-2.3-0.5-4.6-1.3-6.7
				c-2-5.7-6-9.5-11.7-11.8c-2.7-1.1-3.6-2.9-2.8-5.1c0.7-1.9,3.3-2.9,5.6-2.2C359.5-67.3,367.2-57.2,367.4-46z"/>
		</g>
		<g>
			
				<image style="display:none;overflow:visible;" width="1024" height="1024" xlink:href="9818FABE.jpg"  transform="matrix(0.1572 0 0 0.1572 200 -193.5973)">
			</image>
			<path d="M325-170.1c0,3-1.8,4.5-4.4,4c-1.6-0.3-3.1-1-4.7-1.3c-6.7-1.2-12.6,0.5-17.6,5.2c-1.4,1.3-2.7,2.9-5,1.7
				c-2.5-1.3-2.9-4.4-0.8-6.8c3.1-3.6,7.1-6,11.6-7.5c5.9-1.8,11.6-1.4,17.3,0.9C323.4-173.1,324.8-171.8,325-170.1z"/>
			<path d="M240-100.4c0.4-7.3-2.4-13-8.4-17.1c-0.2-0.2-0.5-0.3-0.7-0.5c-2.9-2-3.5-3.5-2.2-5.6c1.3-2.1,3.5-2.5,6.3-1
				c9,4.7,14.8,16.7,12.7,26.4c-0.7,3.4-2.6,5.2-5,4.7c-2.2-0.4-3.1-2.2-2.8-5.7C240-99.7,240-100,240-100.4z"/>
			<path d="M308.3-52.2c1.2-5,3.6-9.5,7.4-13.1c4.5-4.2,9.9-6.4,15.9-7.1c2.6-0.3,5.1,1.5,5.4,3.6c0.3,2.1-1.2,3.8-4.1,4.1
				c-8.8,1.1-14.4,5.9-17.2,14.2c-0.6,1.9-2,3.1-4.1,2.7C309.3-48.1,308.5-49.9,308.3-52.2z"/>
			<path d="M167.4-46c-0.1,0.3-0.1,1.7-0.8,2.4c-1,1.1-2.5,2.2-3.8,2.3c-1.9,0.1-2.9-1.5-3.2-3.4c-0.3-2.3-0.5-4.6-1.3-6.7
				c-2-5.7-6-9.5-11.7-11.8c-2.7-1.1-3.6-2.9-2.8-5.1c0.7-1.9,3.3-2.9,5.6-2.2C159.5-67.3,167.2-57.2,167.4-46z"/>
			<path d="M275-124.7c0.1,2.8-1.4,4.8-3.5,5.1c-2.3,0.2-3.7-1.2-4.1-4.1c-1.3-8.5-6.1-13.9-14.2-16.5c-2.3-0.7-3.7-2-3.2-4.6
				c0.4-2.1,2.7-3.3,5.2-2.9C265.2-146,274.7-135,275-124.7z"/>
			<path d="M217.8-188.6c0,7.6,3.4,13.3,10,17c2.9,1.7,3.9,3.6,2.8,5.6c-1.1,2.1-3.8,2.7-6.6,1.2c-9.5-5-14.1-13-14.3-23.6
				c0-1.4,0.1-3.1,0.8-4.1c0.9-1.2,2.6-2.4,4-2.5c2-0.1,3,1.7,3.2,3.7C217.9-190.3,217.8-189.5,217.8-188.6z"/>
			<path d="M324.1-126.7c-2.3-0.8-6.4-2-10.4-3.4c-1-0.4-2.2-1.3-2.5-2.2c-0.4-1.5-0.6-3.4,0-4.7c0.8-1.8,2.7-1.6,4.5-0.9
				c2.6,1,5.3,2.3,8,2.7c5.2,0.9,10-0.8,14.2-3.9c1.9-1.5,3.9-2.2,5.8,0c1.5,1.7,1.2,4.2-1,6.1C338.1-128.9,332.3-127.1,324.1-126.7
				z"/>
			<path d="M172.2-108.9c0.7-1.8,1.6-4.5,3-6.9c4.4-7.5,11.2-11.5,19.7-12.7c1-0.1,2.4-0.1,3,0.5c1.2,1,2.7,2.6,2.6,3.8
				c-0.1,1.2-2,2.9-3.3,3.1c-7.2,1.3-12.9,4.5-16.1,11.3c-0.5,1.1-0.9,2.3-1.4,3.4c-0.7,1.9-2,3.2-4,2.9
				C173.2-103.8,172.3-105.6,172.2-108.9z"/>
			<path d="M206.5-90.8c3.6,1,7.4,1.7,10.9,2.9c2.7,1,3.8,3.5,2.9,5.7c-0.9,2.1-2.9,2.6-5.9,1.4c-7.6-2.9-14.4-1.6-20.5,3.6
				c-0.2,0.2-0.4,0.4-0.6,0.6c-1.7,1.5-3.5,2.4-5.5,0.5c-1.6-1.5-1.6-4.3,0.2-6.2c4-4.2,8.9-6.8,14.6-7.7c1.2-0.2,2.5-0.2,3.7-0.3
				C206.4-90.4,206.5-90.6,206.5-90.8z"/>
			<path d="M299.5-89.5c-4.3,0-8.6-1.1-12.6-3.5c-2.4-1.5-3.4-4-2.3-6c1.1-2,3-2.2,6-0.8c7.3,3.6,14.3,3.2,21-1.7
				c2.7-1.9,4.6-2,6.1-0.2c1.6,1.9,1.1,4.5-1.4,6.5C311.5-91.4,306.1-89.4,299.5-89.5z"/>
			<path d="M163.4-180.7c10.5,0.6,20.5,9.2,22.7,19.5c0.6,2.7-0.4,5.1-2.4,5.7c-2.3,0.7-4-0.3-5-3.4c-2.5-8-7.8-12.8-16.2-14.1
				c-2.8-0.4-4.4-2.2-4.2-4.2C158.6-179.2,160.9-180.8,163.4-180.7z"/>
			<path d="M284.6-49.3c-0.3,10.2-7,19.5-16.8,23.1c-2.5,0.9-5,0.1-5.9-1.9c-0.8-2.1,0.1-3.9,2.7-5.1c7.8-3.6,11.8-9.6,12.2-18.1
				c0.1-2.4,0.8-4.2,3.4-4.4c2.2-0.2,4,1.8,4.3,4.5C284.6-50.6,284.6-49.9,284.6-49.3z"/>
			<path d="M255.9-202.8c-7-0.4-12.7-2.3-17.4-6.5c-1.1-1-2.1-2.8-2.2-4.3c-0.3-2.7,2.4-4.3,4.9-3.1c1,0.5,1.9,1.3,2.8,1.9
				c6.2,4.4,12.8,4.9,19.8,2.1c0.4-0.2,0.8-0.5,1.3-0.6c2-0.6,3.8-0.6,5,1.5c1.1,2,0.3,3.7-1.1,4.8c-1.9,1.3-4.1,2.4-6.3,3.1
				C260.1-203.3,257.6-203.1,255.9-202.8z"/>
			<path d="M328.8-212.7c-7.7-0.1-13.5,3.2-17.5,9.8c-0.8,1.2-1.9,2.5-3.1,3.2c-1.8,1-4.2-0.8-4.4-3.1c-0.1-1.2,0.1-2.5,0.6-3.6
				c4.3-8.9,14.6-14.9,24.6-14.2c0.6,0,1.1,0.1,1.7,0.2c2.7,0.6,4.5,2.6,4.2,4.6c-0.3,2.2-2.1,3.4-5.2,3.2
				C329.4-212.7,329.1-212.7,328.8-212.7z"/>
			<path d="M190-220.4c-0.6,7.6-3.5,13.8-8.9,18.9c-0.7,0.7-1.8,1.6-2.6,1.5c-1.5-0.1-3.4-0.5-4.5-1.5c-1.5-1.4-0.4-3.1,0.6-4.6
				c2-2.8,4.2-5.4,5.6-8.5c2-4.3,1.5-9-0.2-13.4c-0.9-2.3-0.4-4.1,1.7-5.1c2.2-1,4.4-0.2,5.2,2C188.3-227.6,189-224,190-220.4z"/>
			<path d="M221.9-40.8c-5.9-0.2-11.1-1.8-15.6-5.4c-1.2-0.9-2.2-2.5-2.5-3.9c-0.6-2.9,2.2-4.9,4.9-3.6c1.1,0.5,2.1,1.3,3.1,2
				c6.6,3.7,13.2,3.7,19.9,0.1c1.8-1,3.6-1.5,5.2,0.1c2,1.9,1.4,4.9-1.5,6.7C231.3-42.1,226.6-41,221.9-40.8z"/>
		</g>
		<g>
			
				<image style="display:none;overflow:visible;" width="1024" height="1024" xlink:href="9818FAB1.jpg"  transform="matrix(0.1572 0 0 0.1572 0 -193.5973)">
			</image>
		</g>
	</g>
</pattern>
<g>
	<rect x="211" y="51.8" class="st0" width="100" height="100"/>
</g>
<pattern  id="SVGID_1_" xlink:href="#New_Pattern_Swatch_3" patternTransform="matrix(0.25 0 0 0.25 -5940.8354 -6119.8232)">
</pattern>
<rect class="st1" width="50" height="50"/>
</svg>
